<?xml version="1.0" encoding="utf-8"?>
<svg viewBox="41.576 187.403 381.477 109.68" xmlns="http://www.w3.org/2000/svg">
  <defs>
    <linearGradient id="linear-gradient" x1="323.41" y1="336.22" x2="323.41" y2="240.68" gradientUnits="userSpaceOnUse" gradientTransform="matrix(1, 0, 0, 1, -185.895935, -45.609489)">
      <stop offset="0" stop-color="#bccf00"/>
      <stop offset="1" stop-color="#00aeea"/>
    </linearGradient>
  </defs>
  <path class="cls-1" d="M 157.994 194.031 L 142.284 194.031 L 142.284 198.711 L 157.994 198.711 C 165.211 198.946 169.466 206.906 165.654 213.038 C 163.999 215.699 161.126 217.358 157.994 217.461 L 142.284 217.461 L 142.284 222.151 L 157.994 222.151 C 165.746 222.123 172.022 215.843 172.044 208.091 C 172.028 200.336 165.748 194.053 157.994 194.031 Z" style="fill: rgb(0, 174, 234);"/>
  <polygon class="cls-2" points="101.444 250.531 132.504 287.731 132.504 280.021 101.444 242.891 101.444 250.531" style="fill: rgb(188, 207, 0);"/>
  <polygon class="cls-3" points="237.804 225.371 232.374 225.371 207.274 259.871 207.274 225.371 202.954 225.371 202.954 273.261 218.024 252.591 233.514 271.011 233.704 271.231 239.424 271.231 220.624 248.891 237.804 225.371" style="fill: rgb(122, 124, 129);"/>
  <path class="cls-3" d="M 274.744 228.031 C 263.632 221.562 249.377 225.393 243.004 236.561 C 238.857 243.838 238.857 252.763 243.004 260.041 C 245.019 263.583 247.938 266.527 251.464 268.571 C 258.659 272.758 267.549 272.758 274.744 268.571 C 290.211 259.483 290.211 237.118 274.744 228.031 Z M 263.104 267.331 C 259.783 267.353 256.519 266.468 253.664 264.771 C 250.811 263.09 248.439 260.703 246.774 257.841 C 243.362 251.938 243.362 244.663 246.774 238.761 C 248.444 235.902 250.816 233.517 253.664 231.831 C 259.497 228.425 266.712 228.425 272.544 231.831 C 275.39 233.503 277.751 235.888 279.394 238.751 C 282.767 244.667 282.767 251.924 279.394 257.841 C 277.744 260.698 275.385 263.082 272.544 264.761 C 269.689 266.459 266.426 267.348 263.104 267.331 Z" style="fill: rgb(122, 124, 129);"/>
  <path class="cls-3" d="M 313.674 251.391 C 315.17 251.197 316.626 250.776 317.994 250.141 C 320.23 249.169 322.166 247.619 323.604 245.651 C 326.249 242.184 326.739 237.532 324.874 233.591 C 324.099 231.976 323.011 230.532 321.674 229.341 C 320.216 228.029 318.518 227.01 316.674 226.341 C 314.71 225.657 312.643 225.319 310.564 225.341 L 294.344 225.341 L 294.344 271.201 L 298.664 271.201 L 298.664 229.691 L 310.554 229.691 C 312.594 229.65 314.614 230.099 316.444 231.001 C 318.011 231.753 319.356 232.901 320.344 234.331 C 321.198 235.573 321.661 237.043 321.674 238.551 C 321.679 240.198 321.126 241.799 320.104 243.091 C 319.11 244.427 317.806 245.501 316.304 246.221 C 313.743 247.151 311.027 247.578 308.304 247.481 L 301.514 247.481 L 320.874 271.011 L 321.064 271.231 L 326.774 271.231 L 310.614 251.641 C 311.674 251.611 312.704 251.531 313.674 251.391 Z" style="fill: rgb(122, 124, 129);"/>
  <polygon class="cls-3" points="336.094 271.231 366.234 271.231 366.234 266.781 340.414 266.781 340.414 250.501 360.534 250.501 360.534 246.111 340.414 246.111 340.414 229.761 366.234 229.761 366.234 225.371 336.094 225.371 336.094 271.231" style="fill: rgb(122, 124, 129);"/>
  <path class="cls-3" d="M 395.574 223.951 L 373.574 271.231 L 378.364 271.231 L 383.644 259.901 L 406.644 259.901 L 411.644 271.231 L 416.344 271.231 L 395.574 223.951 Z M 395.404 234.551 L 404.714 255.551 L 385.714 255.551 L 395.404 234.551 Z" style="fill: rgb(122, 124, 129);"/>
  <rect class="cls-4" x="182.584" y="225.401" width="4.62" height="49.62" style="fill: rgb(0, 123, 196);"/>
  <rect class="cls-2" x="94.124" y="240.351" width="4.62" height="49.64" style="fill: rgb(188, 207, 0);"/>
  <path class="cls-5" d="M 95.334 224.041 C 92.979 221.466 90.12 219.404 86.934 217.981 C 79.693 214.726 71.323 215.189 64.484 219.221 C 60.746 221.435 57.645 224.581 55.484 228.351 C 51.057 236.121 51.057 245.65 55.484 253.421 C 57.635 257.206 60.738 260.363 64.484 262.581 C 68.247 264.826 72.552 266.001 76.934 265.981 C 80.647 265.989 84.313 265.151 87.654 263.531 C 88.935 262.893 90.16 262.147 91.314 261.301 L 91.314 255.141 C 89.652 256.845 87.711 258.252 85.574 259.301 C 79.598 262.198 72.569 261.917 66.844 258.551 C 63.786 256.749 61.247 254.186 59.474 251.111 C 55.82 244.769 55.82 236.962 59.474 230.621 C 61.249 227.547 63.788 224.985 66.844 223.181 C 72.393 219.89 79.199 219.517 85.074 222.181 C 87.637 223.363 89.926 225.065 91.794 227.181 L 92.234 227.671 L 95.794 224.521 L 95.334 224.041 Z" style="fill: rgb(78, 173, 51);"/>
  <polygon class="cls-1" points="180.334 253.711 156.094 224.731 149.704 224.731 180.334 261.421 180.334 253.711" style="fill: rgb(0, 174, 234);"/>
  <rect class="cls-6" x="135.204" y="194.031" width="4.62" height="95.96" style="fill: url(#linear-gradient);"/>
</svg>