<?xml version="1.0" encoding="utf-8"?>
<svg viewBox="51.505 196.711 388.303 115.266" xmlns="http://www.w3.org/2000/svg">
  <defs>
    <linearGradient id="linear-gradient" x1="323.41" y1="336.22" x2="323.41" y2="240.68" gradientUnits="userSpaceOnUse" gradientTransform="matrix(1, 0, 0, 1, -176.587847, -32.578118)">
      <stop offset="0" stop-color="#bccf00"/>
      <stop offset="1" stop-color="#00aeea"/>
    </linearGradient>
  </defs>
  <path class="cls-1" d="M 167.302 207.062 L 151.592 207.062 L 151.592 211.742 L 167.302 211.742 C 174.519 211.978 178.774 219.937 174.962 226.07 C 173.307 228.73 170.434 230.39 167.302 230.492 L 151.592 230.492 L 151.592 235.182 L 167.302 235.182 C 175.054 235.154 181.33 228.874 181.352 221.122 C 181.336 213.367 175.057 207.084 167.302 207.062 Z" style="fill: rgb(0, 174, 234);"/>
  <polygon class="cls-2" points="110.752 263.562 141.812 300.762 141.812 293.052 110.752 255.922 110.752 263.562" style="fill: rgb(188, 207, 0);"/>
  <polygon class="cls-3" points="247.112 238.402 241.682 238.402 216.582 272.902 216.582 238.402 212.262 238.402 212.262 286.292 227.332 265.622 242.822 284.042 243.012 284.262 248.732 284.262 229.932 261.922 247.112 238.402" style="fill: rgb(255, 255, 255);"/>
  <path class="cls-3" d="M 284.052 241.062 C 272.94 234.593 258.685 238.424 252.312 249.592 C 248.165 256.869 248.165 265.795 252.312 273.072 C 254.327 276.615 257.246 279.558 260.772 281.602 C 267.967 285.79 276.857 285.79 284.052 281.602 C 299.519 272.514 299.519 250.15 284.052 241.062 L 284.052 241.062 Z M 272.412 280.362 C 269.091 280.384 265.827 279.499 262.972 277.802 C 260.119 276.121 257.747 273.734 256.082 270.872 C 252.67 264.97 252.67 257.694 256.082 251.792 C 257.752 248.934 260.124 246.549 262.972 244.862 C 268.805 241.456 276.02 241.456 281.852 244.862 C 284.698 246.534 287.059 248.919 288.702 251.782 C 292.076 257.698 292.076 264.956 288.702 270.872 C 287.052 273.73 284.693 276.113 281.852 277.792 C 278.997 279.49 275.734 280.379 272.412 280.362 Z" style="fill: rgb(255, 255, 255);"/>
  <path class="cls-3" d="M 322.982 264.422 C 324.478 264.229 325.935 263.807 327.302 263.172 C 329.538 262.2 331.474 260.65 332.912 258.682 C 335.557 255.216 336.047 250.563 334.182 246.622 C 333.407 245.007 332.32 243.563 330.982 242.372 C 329.524 241.06 327.826 240.041 325.982 239.372 C 324.019 238.688 321.951 238.35 319.872 238.372 L 303.652 238.372 L 303.652 284.232 L 307.972 284.232 L 307.972 242.722 L 319.862 242.722 C 321.902 242.681 323.922 243.13 325.752 244.032 C 327.32 244.784 328.664 245.932 329.652 247.362 C 330.506 248.605 330.969 250.074 330.982 251.582 C 330.988 253.229 330.434 254.83 329.412 256.122 C 328.418 257.458 327.114 258.532 325.612 259.252 C 323.051 260.182 320.335 260.61 317.612 260.512 L 310.822 260.512 L 330.182 284.042 L 330.372 284.262 L 336.082 284.262 L 319.922 264.672 C 320.982 264.642 322.012 264.562 322.982 264.422 Z" style="fill: rgb(255, 255, 255);"/>
  <polygon class="cls-3" points="345.402 284.262 375.542 284.262 375.542 279.812 349.722 279.812 349.722 263.532 369.842 263.532 369.842 259.142 349.722 259.142 349.722 242.792 375.542 242.792 375.542 238.402 345.402 238.402 345.402 284.262" style="fill: rgb(255, 255, 255);"/>
  <path class="cls-3" d="M 404.882 236.982 L 382.882 284.262 L 387.672 284.262 L 392.952 272.932 L 415.952 272.932 L 420.952 284.262 L 425.652 284.262 L 404.882 236.982 Z M 404.712 247.582 L 414.022 268.582 L 395.022 268.582 L 404.712 247.582 Z" style="fill: rgb(255, 255, 255);"/>
  <rect class="cls-4" x="191.892" y="238.432" width="4.62" height="49.62" style="fill: rgb(0, 123, 196);"/>
  <rect class="cls-2" x="103.432" y="253.382" width="4.62" height="49.64" style="fill: rgb(188, 207, 0);"/>
  <path class="cls-5" d="M 104.642 237.072 C 102.287 234.498 99.428 232.435 96.242 231.012 C 89.001 227.757 80.631 228.22 73.792 232.252 C 70.054 234.467 66.953 237.612 64.792 241.382 C 60.365 249.152 60.365 258.682 64.792 266.452 C 66.943 270.237 70.046 273.394 73.792 275.612 C 77.555 277.857 81.86 279.032 86.242 279.012 C 89.955 279.02 93.621 278.182 96.962 276.562 C 98.243 275.924 99.468 275.178 100.622 274.332 L 100.622 268.172 C 98.961 269.876 97.019 271.283 94.882 272.332 C 88.906 275.229 81.877 274.948 76.152 271.582 C 73.094 269.78 70.555 267.217 68.782 264.142 C 65.128 257.801 65.128 249.993 68.782 243.652 C 70.557 240.579 73.096 238.016 76.152 236.212 C 81.701 232.921 88.507 232.548 94.382 235.212 C 96.945 236.394 99.234 238.097 101.102 240.212 L 101.542 240.702 L 105.102 237.552 L 104.642 237.072 Z" style="fill: rgb(78, 173, 51);"/>
  <polygon class="cls-1" points="189.642 266.742 165.402 237.762 159.012 237.762 189.642 274.452 189.642 266.742" style="fill: rgb(0, 174, 234);"/>
  <rect class="cls-6" x="144.512" y="207.062" width="4.62" height="95.96" style="fill: url(#linear-gradient);"/>
</svg>