<?xml version="1.0" encoding="utf-8"?>
<svg viewBox="53.366 191.126 380.236 112.783" xmlns="http://www.w3.org/2000/svg">
  <defs>
    <linearGradient id="linear-gradient" x1="323.41" y1="336.22" x2="323.41" y2="240.68" gradientUnits="userSpaceOnUse" gradientTransform="matrix(1, 0, 0, 1, -177.208387, -41.886238)">
      <stop offset="0" stop-color="#bccf00"/>
      <stop offset="1" stop-color="#00aeea"/>
    </linearGradient>
  </defs>
  <path class="cls-1" d="M 160.612 293.354 C 159.887 293.357 159.175 293.164 158.552 292.794 C 157.929 292.425 157.413 291.901 157.052 291.274 C 156.332 289.988 156.332 288.42 157.052 287.134 C 157.413 286.51 157.93 285.99 158.552 285.624 C 159.175 285.254 159.887 285.061 160.612 285.064 C 161.181 285.065 161.744 285.188 162.262 285.424 C 162.788 285.66 163.261 286 163.652 286.424 L 163.212 286.814 C 162.557 286.061 161.61 285.627 160.612 285.624 C 159.989 285.619 159.377 285.785 158.842 286.104 C 158.308 286.421 157.864 286.868 157.552 287.404 C 157.233 287.95 157.067 288.572 157.072 289.204 C 157.067 289.833 157.233 290.452 157.552 290.994 C 157.862 291.532 158.306 291.98 158.842 292.294 C 159.377 292.613 159.989 292.779 160.612 292.774 C 161.136 292.779 161.653 292.659 162.122 292.424 C 162.603 292.189 163.024 291.847 163.352 291.424 L 163.792 291.774 C 163.413 292.258 162.927 292.648 162.372 292.914 C 161.827 293.194 161.225 293.344 160.612 293.354 Z" style="fill: rgb(122, 124, 129); stroke: rgb(122, 124, 129); stroke-miterlimit: 10; stroke-width: 0.5px;"/>
  <path class="cls-1" d="M 167.312 291.204 L 166.312 293.264 L 165.692 293.264 L 169.502 285.064 L 173.102 293.264 L 172.492 293.264 L 171.582 291.204 L 167.312 291.204 Z M 169.512 286.444 L 167.572 290.644 L 171.372 290.644 L 169.512 286.444 Z" style="fill: rgb(122, 124, 129); stroke: rgb(122, 124, 129); stroke-miterlimit: 10; stroke-width: 0.5px;"/>
  <path class="cls-1" d="M 180.432 293.264 L 177.072 289.174 L 178.072 289.174 C 178.582 289.19 179.09 289.112 179.572 288.944 C 179.859 288.799 180.108 288.59 180.302 288.334 C 180.697 287.835 180.717 287.135 180.352 286.614 C 180.162 286.339 179.904 286.118 179.602 285.974 C 179.255 285.799 178.87 285.713 178.482 285.724 L 176.222 285.724 L 176.222 293.264 L 175.652 293.264 L 175.652 285.164 L 178.482 285.164 C 178.846 285.16 179.209 285.221 179.552 285.344 C 179.878 285.455 180.178 285.632 180.432 285.864 C 180.663 286.068 180.85 286.316 180.982 286.594 C 181.107 286.86 181.172 287.15 181.172 287.444 C 181.18 287.889 181.036 288.323 180.762 288.674 C 180.507 289.021 180.161 289.291 179.762 289.454 C 179.524 289.563 179.271 289.634 179.012 289.664 C 178.753 289.696 178.493 289.713 178.232 289.714 L 181.162 293.264 L 180.432 293.264 Z" style="fill: rgb(122, 124, 129); stroke: rgb(122, 124, 129); stroke-miterlimit: 10; stroke-width: 0.5px;"/>
  <path class="cls-1" d="M 189.362 289.784 C 189.628 290.127 189.769 290.55 189.762 290.984 C 189.762 291.278 189.697 291.568 189.572 291.834 C 189.443 292.119 189.251 292.372 189.012 292.574 C 188.758 292.799 188.462 292.972 188.142 293.084 C 187.798 293.204 187.436 293.265 187.072 293.264 L 184.072 293.264 L 184.072 285.164 L 186.382 285.164 C 187.046 285.128 187.698 285.358 188.192 285.804 C 188.397 285.987 188.561 286.212 188.672 286.464 C 188.919 287.002 188.897 287.625 188.612 288.144 C 188.471 288.394 188.276 288.609 188.042 288.774 L 187.932 288.854 L 188.342 289.004 C 188.747 289.165 189.1 289.435 189.362 289.784 Z M 184.672 288.694 L 186.402 288.694 C 186.588 288.707 186.775 288.707 186.962 288.694 L 187.412 288.574 C 187.648 288.461 187.857 288.297 188.022 288.094 C 188.223 287.869 188.33 287.576 188.322 287.274 C 188.319 287.015 188.242 286.762 188.102 286.544 C 187.939 286.303 187.714 286.11 187.452 285.984 C 187.138 285.841 186.797 285.77 186.452 285.774 L 184.702 285.774 L 184.672 288.694 Z M 188.192 292.454 C 188.494 292.31 188.752 292.089 188.942 291.814 C 189.109 291.569 189.199 291.28 189.202 290.984 C 189.205 290.665 189.099 290.355 188.902 290.104 C 188.708 289.856 188.458 289.657 188.172 289.524 C 187.691 289.337 187.178 289.249 186.662 289.264 L 184.662 289.264 L 184.662 292.704 L 187.062 292.704 C 187.453 292.715 187.842 292.629 188.192 292.454 Z" style="fill: rgb(122, 124, 129); stroke: rgb(122, 124, 129); stroke-miterlimit: 10; stroke-width: 0.5px;"/>
  <path class="cls-1" d="M 196.022 293.354 C 192.836 293.414 190.779 290.002 192.32 287.213 C 193.443 285.181 196.015 284.469 198.022 285.634 C 200.757 287.237 200.757 291.191 198.022 292.794 C 197.416 293.154 196.726 293.347 196.022 293.354 Z M 196.022 285.654 C 195.399 285.649 194.787 285.815 194.252 286.134 C 193.719 286.447 193.275 286.891 192.962 287.424 C 192.322 288.532 192.322 289.896 192.962 291.004 C 193.275 291.537 193.719 291.981 194.252 292.294 C 195.345 292.935 196.699 292.935 197.792 292.294 C 198.322 291.981 198.763 291.536 199.072 291.004 C 199.699 289.893 199.699 288.535 199.072 287.424 C 198.765 286.884 198.324 286.433 197.792 286.114 C 197.255 285.802 196.643 285.643 196.022 285.654 Z" style="fill: rgb(122, 124, 129); stroke: rgb(122, 124, 129); stroke-miterlimit: 10; stroke-width: 0.5px;"/>
  <path class="cls-1" d="M 203.242 286.684 L 203.242 293.264 L 202.682 293.264 L 202.682 285.114 L 208.292 291.814 L 208.292 285.214 L 208.852 285.214 L 208.852 293.454 L 203.242 286.684 Z" style="fill: rgb(122, 124, 129); stroke: rgb(122, 124, 129); stroke-miterlimit: 10; stroke-width: 0.5px;"/>
  <path class="cls-1" d="M 217.322 286.684 L 217.322 293.264 L 216.792 293.264 L 216.792 285.114 L 222.402 291.814 L 222.402 285.214 L 222.962 285.214 L 222.962 293.454 L 217.322 286.684 Z" style="fill: rgb(122, 124, 129); stroke: rgb(122, 124, 129); stroke-miterlimit: 10; stroke-width: 0.5px;"/>
  <path class="cls-1" d="M 226.072 293.264 L 226.072 285.164 L 231.322 285.164 L 231.322 285.734 L 226.632 285.734 L 226.632 288.924 L 230.282 288.924 L 230.282 289.504 L 226.632 289.504 L 226.632 292.674 L 231.322 292.674 L 231.322 293.264 L 226.072 293.264 Z" style="fill: rgb(122, 124, 129); stroke: rgb(122, 124, 129); stroke-miterlimit: 10; stroke-width: 0.5px;"/>
  <path class="cls-1" d="M 237.402 293.354 C 236.995 293.356 236.593 293.271 236.222 293.104 C 235.845 292.945 235.505 292.71 235.222 292.414 C 234.929 292.133 234.7 291.792 234.552 291.414 C 234.401 291.029 234.323 290.618 234.322 290.204 L 234.322 285.154 L 234.882 285.154 L 234.882 290.204 C 234.882 290.546 234.946 290.886 235.072 291.204 C 235.197 291.515 235.384 291.798 235.622 292.034 C 235.856 292.27 236.135 292.457 236.442 292.584 C 237.06 292.837 237.753 292.837 238.372 292.584 C 238.679 292.457 238.958 292.27 239.192 292.034 C 239.427 291.797 239.611 291.515 239.732 291.204 C 239.866 290.888 239.934 290.547 239.932 290.204 L 239.932 285.154 L 240.492 285.154 L 240.492 290.204 C 240.491 290.618 240.413 291.029 240.262 291.414 C 240.11 291.79 239.882 292.13 239.592 292.414 C 239.309 292.71 238.969 292.945 238.592 293.104 C 238.218 293.273 237.812 293.358 237.402 293.354 Z" style="fill: rgb(122, 124, 129); stroke: rgb(122, 124, 129); stroke-miterlimit: 10; stroke-width: 0.5px;"/>
  <path class="cls-1" d="M 250.042 285.164 L 250.042 285.734 L 246.842 285.734 L 246.842 293.264 L 246.272 293.264 L 246.272 285.734 L 243.052 285.734 L 243.052 285.164 L 250.042 285.164 Z" style="fill: rgb(122, 124, 129); stroke: rgb(122, 124, 129); stroke-miterlimit: 10; stroke-width: 0.5px;"/>
  <path class="cls-1" d="M 257.382 293.264 L 254.022 289.174 L 255.022 289.174 C 255.529 289.189 256.034 289.111 256.512 288.944 C 256.802 288.799 257.055 288.591 257.252 288.334 C 257.45 288.079 257.558 287.767 257.562 287.444 C 257.559 287.148 257.469 286.859 257.302 286.614 C 257.107 286.343 256.85 286.124 256.552 285.974 C 256.204 285.801 255.82 285.716 255.432 285.724 L 253.162 285.724 L 253.162 293.264 L 252.602 293.264 L 252.602 285.164 L 255.432 285.164 C 255.796 285.161 256.159 285.222 256.502 285.344 C 256.824 285.457 257.12 285.634 257.372 285.864 C 257.606 286.067 257.796 286.315 257.932 286.594 C 258.053 286.861 258.118 287.151 258.122 287.444 C 258.126 287.888 257.981 288.321 257.712 288.674 C 257.299 289.232 256.672 289.595 255.982 289.674 C 255.723 289.707 255.463 289.724 255.202 289.724 L 258.132 293.274 L 257.382 293.264 Z" style="fill: rgb(122, 124, 129); stroke: rgb(122, 124, 129); stroke-miterlimit: 10; stroke-width: 0.5px;"/>
  <path class="cls-1" d="M 261.992 291.204 L 261.042 293.264 L 260.412 293.264 L 264.222 285.064 L 267.832 293.264 L 267.212 293.264 L 266.312 291.204 L 261.992 291.204 Z M 264.202 286.444 L 262.262 290.644 L 266.062 290.644 L 264.202 286.444 Z" style="fill: rgb(122, 124, 129); stroke: rgb(122, 124, 129); stroke-miterlimit: 10; stroke-width: 0.5px;"/>
  <path class="cls-1" d="M 270.332 293.264 L 270.332 285.164 L 270.892 285.164 L 270.892 292.704 L 275.442 292.704 L 275.442 293.264 L 270.332 293.264 Z" style="fill: rgb(122, 124, 129); stroke: rgb(122, 124, 129); stroke-miterlimit: 10; stroke-width: 0.5px;"/>
  <path class="cls-1" d="M 287.992 293.264 L 284.622 289.174 L 285.622 289.174 C 286.129 289.189 286.634 289.111 287.112 288.944 C 287.403 288.802 287.657 288.593 287.852 288.334 C 288.054 288.081 288.163 287.767 288.162 287.444 C 288.159 287.148 288.069 286.859 287.902 286.614 C 287.707 286.343 287.45 286.124 287.152 285.974 C 286.805 285.8 286.42 285.714 286.032 285.724 L 283.792 285.724 L 283.792 293.264 L 283.232 293.264 L 283.232 285.164 L 286.062 285.164 C 286.426 285.161 286.789 285.222 287.132 285.344 C 287.454 285.457 287.75 285.634 288.002 285.864 C 288.236 286.067 288.426 286.315 288.562 286.594 C 288.886 287.274 288.801 288.077 288.342 288.674 C 288.085 289.019 287.739 289.288 287.342 289.454 C 287.101 289.564 286.845 289.635 286.582 289.664 C 286.327 289.697 286.069 289.713 285.812 289.714 L 288.732 293.264 L 287.992 293.264 Z" style="fill: rgb(122, 124, 129); stroke: rgb(122, 124, 129); stroke-miterlimit: 10; stroke-width: 0.5px;"/>
  <path class="cls-1" d="M 291.652 293.264 L 291.652 285.164 L 296.902 285.164 L 296.902 285.734 L 292.212 285.734 L 292.212 288.924 L 295.862 288.924 L 295.862 289.504 L 292.212 289.504 L 292.212 292.674 L 296.902 292.674 L 296.902 293.264 L 291.652 293.264 Z" style="fill: rgb(122, 124, 129); stroke: rgb(122, 124, 129); stroke-miterlimit: 10; stroke-width: 0.5px;"/>
  <path class="cls-1" d="M 304.792 290.114 C 304.998 290.407 305.11 290.756 305.112 291.114 C 305.111 291.422 305.031 291.725 304.882 291.994 C 304.725 292.282 304.507 292.531 304.242 292.724 C 303.656 293.133 302.957 293.35 302.242 293.344 C 301.873 293.347 301.505 293.293 301.152 293.184 C 300.816 293.082 300.499 292.927 300.212 292.724 C 299.77 292.42 299.463 291.958 299.352 291.434 L 299.892 291.134 C 299.919 291.597 300.169 292.018 300.562 292.264 C 300.791 292.432 301.048 292.558 301.322 292.634 C 301.62 292.727 301.93 292.774 302.242 292.774 C 302.846 292.794 303.44 292.614 303.932 292.264 C 304.328 292.013 304.575 291.583 304.592 291.114 C 304.593 290.853 304.505 290.599 304.342 290.394 C 304.167 290.151 303.937 289.952 303.672 289.814 C 303.202 289.628 302.706 289.517 302.202 289.484 L 301.572 289.384 C 301.249 289.339 300.936 289.244 300.642 289.104 C 300.245 288.934 299.899 288.661 299.642 288.314 C 299.417 288.006 299.295 287.635 299.292 287.254 C 299.292 286.949 299.372 286.649 299.522 286.384 C 299.685 286.101 299.907 285.856 300.172 285.664 C 300.459 285.462 300.776 285.306 301.112 285.204 C 301.465 285.095 301.833 285.041 302.202 285.044 C 302.917 285.039 303.616 285.255 304.202 285.664 C 304.638 285.96 304.94 286.417 305.042 286.934 L 304.512 287.234 C 304.5 287.026 304.438 286.823 304.332 286.644 C 304.205 286.44 304.042 286.26 303.852 286.114 C 303.613 285.948 303.35 285.82 303.072 285.734 C 302.777 285.644 302.47 285.6 302.162 285.604 C 301.854 285.602 301.547 285.645 301.252 285.734 C 300.975 285.816 300.715 285.944 300.482 286.114 C 300.285 286.26 300.116 286.439 299.982 286.644 C 299.874 286.829 299.815 287.039 299.812 287.254 C 299.823 287.532 299.925 287.799 300.102 288.014 C 300.285 288.268 300.529 288.471 300.812 288.604 C 300.994 288.697 301.19 288.761 301.392 288.794 L 302.202 288.904 L 302.642 288.974 C 302.867 289.006 303.091 289.049 303.312 289.104 C 303.503 289.153 303.687 289.224 303.862 289.314 C 304.232 289.502 304.551 289.776 304.792 290.114 Z" style="fill: rgb(122, 124, 129); stroke: rgb(122, 124, 129); stroke-miterlimit: 10; stroke-width: 0.5px;"/>
  <path class="cls-1" d="M 307.972 293.264 L 307.972 285.164 L 313.222 285.164 L 313.222 285.734 L 308.532 285.734 L 308.532 288.924 L 312.182 288.924 L 312.182 289.504 L 308.532 289.504 L 308.532 292.674 L 313.222 292.674 L 313.222 293.264 L 307.972 293.264 Z" style="fill: rgb(122, 124, 129); stroke: rgb(122, 124, 129); stroke-miterlimit: 10; stroke-width: 0.5px;"/>
  <path class="cls-1" d="M 317.292 291.204 L 316.292 293.264 L 315.672 293.264 L 319.482 285.064 L 323.082 293.264 L 322.472 293.264 L 321.562 291.204 L 317.292 291.204 Z M 319.502 286.444 L 317.552 290.644 L 321.352 290.644 L 319.502 286.444 Z" style="fill: rgb(122, 124, 129); stroke: rgb(122, 124, 129); stroke-miterlimit: 10; stroke-width: 0.5px;"/>
  <path class="cls-1" d="M 330.412 293.264 L 327.052 289.174 L 328.052 289.174 C 328.562 289.19 329.07 289.112 329.552 288.944 C 329.842 288.799 330.095 288.591 330.292 288.334 C 330.49 288.079 330.598 287.767 330.602 287.444 C 330.599 287.148 330.509 286.859 330.342 286.614 C 330.147 286.343 329.89 286.124 329.592 285.974 C 329.244 285.801 328.86 285.716 328.472 285.724 L 326.192 285.724 L 326.192 293.264 L 325.632 293.264 L 325.632 285.164 L 328.462 285.164 C 328.826 285.161 329.189 285.222 329.532 285.344 C 329.854 285.457 330.15 285.634 330.402 285.864 C 330.636 286.067 330.826 286.315 330.962 286.594 C 331.083 286.861 331.148 287.151 331.152 287.444 C 331.156 287.888 331.011 288.321 330.742 288.674 C 330.484 289.018 330.138 289.287 329.742 289.454 C 329.505 289.565 329.252 289.636 328.992 289.664 C 328.733 289.697 328.473 289.714 328.212 289.714 L 331.142 293.264 L 330.412 293.264 Z" style="fill: rgb(122, 124, 129); stroke: rgb(122, 124, 129); stroke-miterlimit: 10; stroke-width: 0.5px;"/>
  <path class="cls-1" d="M 337.542 293.354 C 336.817 293.357 336.105 293.164 335.482 292.794 C 334.86 292.427 334.346 291.903 333.992 291.274 C 332.391 288.528 334.363 285.078 337.542 285.064 C 338.111 285.065 338.674 285.188 339.192 285.424 C 339.72 285.657 340.193 285.998 340.582 286.424 L 340.142 286.814 C 339.819 286.441 339.42 286.141 338.972 285.934 C 338.522 285.732 338.035 285.627 337.542 285.624 C 336.925 285.626 336.32 285.795 335.792 286.114 C 335.258 286.431 334.814 286.878 334.502 287.414 C 334.183 287.96 334.017 288.582 334.022 289.214 C 334.017 289.843 334.183 290.462 334.502 291.004 C 334.812 291.542 335.256 291.99 335.792 292.304 C 336.327 292.623 336.939 292.789 337.562 292.784 C 338.086 292.79 338.604 292.67 339.072 292.434 C 339.553 292.199 339.974 291.857 340.302 291.434 L 340.752 291.784 C 339.98 292.759 338.806 293.329 337.562 293.334 L 337.542 293.354 Z" style="fill: rgb(122, 124, 129); stroke: rgb(122, 124, 129); stroke-miterlimit: 10; stroke-width: 0.5px;"/>
  <path class="cls-1" d="M 348.672 289.504 L 343.882 289.504 L 343.882 293.264 L 343.312 293.264 L 343.312 285.164 L 343.882 285.164 L 343.882 288.924 L 348.672 288.924 L 348.672 285.164 L 349.232 285.164 L 349.232 293.264 L 348.672 293.264 L 348.672 289.504 Z" style="fill: rgb(122, 124, 129); stroke: rgb(122, 124, 129); stroke-miterlimit: 10; stroke-width: 0.5px;"/>
  <path class="cls-1" d="M 357.292 293.264 L 357.292 285.164 L 357.852 285.164 L 357.852 293.264 L 357.292 293.264 Z" style="fill: rgb(122, 124, 129); stroke: rgb(122, 124, 129); stroke-miterlimit: 10; stroke-width: 0.5px;"/>
  <path class="cls-1" d="M 361.712 286.684 L 361.712 293.264 L 361.152 293.264 L 361.152 285.114 L 366.762 291.814 L 366.762 285.214 L 367.322 285.214 L 367.322 293.454 L 361.712 286.684 Z" style="fill: rgb(122, 124, 129); stroke: rgb(122, 124, 129); stroke-miterlimit: 10; stroke-width: 0.5px;"/>
  <path class="cls-1" d="M 375.602 290.114 C 375.805 290.408 375.914 290.757 375.912 291.114 C 375.914 291.421 375.838 291.724 375.692 291.994 C 375.535 292.284 375.312 292.534 375.042 292.724 C 374.456 293.134 373.757 293.35 373.042 293.344 C 372.673 293.348 372.305 293.294 371.952 293.184 C 371.615 293.084 371.298 292.928 371.012 292.724 C 370.57 292.42 370.263 291.958 370.152 291.434 L 370.692 291.134 C 370.719 291.597 370.969 292.018 371.362 292.264 C 371.591 292.432 371.848 292.558 372.122 292.634 C 372.42 292.727 372.73 292.774 373.042 292.774 C 373.643 292.795 374.234 292.616 374.722 292.264 C 375.118 292.013 375.365 291.583 375.382 291.114 C 375.382 290.854 375.298 290.602 375.142 290.394 C 374.962 290.152 374.729 289.954 374.462 289.814 C 373.993 289.626 373.496 289.514 372.992 289.484 L 372.362 289.384 C 372.04 289.337 371.726 289.243 371.432 289.104 C 371.035 288.932 370.691 288.66 370.432 288.314 C 370.203 288.008 370.08 287.636 370.082 287.254 C 370.078 286.948 370.157 286.648 370.312 286.384 C 370.475 286.101 370.697 285.856 370.962 285.664 C 371.248 285.46 371.565 285.304 371.902 285.204 C 372.255 285.094 372.623 285.04 372.992 285.044 C 373.707 285.038 374.406 285.255 374.992 285.664 C 375.432 285.958 375.738 286.415 375.842 286.934 L 375.302 287.234 C 375.299 287.024 375.237 286.82 375.122 286.644 C 375.001 286.435 374.838 286.255 374.642 286.114 C 374.408 285.946 374.148 285.818 373.872 285.734 C 373.577 285.644 373.27 285.6 372.962 285.604 C 372.654 285.602 372.347 285.645 372.052 285.734 C 371.775 285.816 371.515 285.944 371.282 286.114 C 371.083 286.257 370.913 286.437 370.782 286.644 C 370.669 286.827 370.61 287.039 370.612 287.254 C 370.619 287.531 370.718 287.798 370.892 288.014 C 371.077 288.266 371.321 288.468 371.602 288.604 C 371.785 288.694 371.981 288.758 372.182 288.794 L 373.002 288.904 L 373.442 288.974 C 373.672 288.974 373.892 289.054 374.112 289.104 C 374.302 289.155 374.486 289.225 374.662 289.314 C 375.036 289.5 375.358 289.775 375.602 290.114 Z" style="fill: rgb(122, 124, 129); stroke: rgb(122, 124, 129); stroke-miterlimit: 10; stroke-width: 0.5px;"/>
  <path class="cls-1" d="M 384.922 285.164 L 384.922 285.734 L 381.722 285.734 L 381.722 293.264 L 381.152 293.264 L 381.152 285.734 L 377.932 285.734 L 377.932 285.164 L 384.922 285.164 Z" style="fill: rgb(122, 124, 129); stroke: rgb(122, 124, 129); stroke-miterlimit: 10; stroke-width: 0.5px;"/>
  <path class="cls-1" d="M 387.632 293.264 L 387.632 285.164 L 388.192 285.164 L 388.192 293.264 L 387.632 293.264 Z" style="fill: rgb(122, 124, 129); stroke: rgb(122, 124, 129); stroke-miterlimit: 10; stroke-width: 0.5px;"/>
  <path class="cls-1" d="M 397.792 285.164 L 397.792 285.734 L 394.592 285.734 L 394.592 293.264 L 394.012 293.264 L 394.012 285.734 L 390.792 285.734 L 390.792 285.164 L 397.792 285.164 Z" style="fill: rgb(122, 124, 129); stroke: rgb(122, 124, 129); stroke-miterlimit: 10; stroke-width: 0.5px;"/>
  <path class="cls-1" d="M 403.462 293.354 C 403.059 293.355 402.66 293.27 402.292 293.104 C 401.915 292.945 401.575 292.71 401.292 292.414 C 400.996 292.136 400.767 291.794 400.622 291.414 C 400.466 291.03 400.388 290.619 400.392 290.204 L 400.392 285.154 L 400.952 285.154 L 400.952 290.204 C 400.947 290.547 401.012 290.887 401.142 291.204 C 401.267 291.513 401.45 291.795 401.682 292.034 C 401.92 292.27 402.202 292.457 402.512 292.584 C 402.812 292.712 403.136 292.777 403.462 292.774 C 403.805 292.781 404.145 292.716 404.462 292.584 C 404.768 292.454 405.046 292.268 405.282 292.034 C 405.514 291.795 405.697 291.513 405.822 291.204 C 405.952 290.887 406.017 290.547 406.012 290.204 L 406.012 285.154 L 406.582 285.154 L 406.582 290.204 C 406.581 290.618 406.503 291.029 406.352 291.414 C 406.2 291.79 405.972 292.13 405.682 292.414 C 405.399 292.71 405.059 292.945 404.682 293.104 C 404.299 293.277 403.882 293.362 403.462 293.354 Z" style="fill: rgb(122, 124, 129); stroke: rgb(122, 124, 129); stroke-miterlimit: 10; stroke-width: 0.5px;"/>
  <path class="cls-1" d="M 416.112 285.164 L 416.112 285.734 L 412.912 285.734 L 412.912 293.264 L 412.342 293.264 L 412.342 285.734 L 409.122 285.734 L 409.122 285.164 L 416.112 285.164 Z" style="fill: rgb(122, 124, 129); stroke: rgb(122, 124, 129); stroke-miterlimit: 10; stroke-width: 0.5px;"/>
  <path class="cls-1" d="M 418.672 293.264 L 418.672 285.164 L 423.912 285.164 L 423.912 285.734 L 419.232 285.734 L 419.232 288.924 L 422.882 288.924 L 422.882 289.504 L 419.232 289.504 L 419.232 292.674 L 423.912 292.674 L 423.912 293.264 L 418.672 293.264 Z" style="fill: rgb(122, 124, 129); stroke: rgb(122, 124, 129); stroke-miterlimit: 10; stroke-width: 0.5px;"/>
  <path class="cls-2" d="M 166.682 197.754 L 150.972 197.754 L 150.972 202.434 L 166.682 202.434 C 173.899 202.67 178.154 210.63 174.342 216.762 C 172.687 219.423 169.814 221.082 166.682 221.184 L 150.972 221.184 L 150.972 225.874 L 166.682 225.874 C 174.434 225.847 180.71 219.566 180.732 211.814 C 180.715 204.06 174.436 197.776 166.682 197.754 Z" style="fill: rgb(0, 174, 234);"/>
  <polygon class="cls-3" points="110.132 254.254 141.192 291.454 141.192 283.744 110.132 246.614 110.132 254.254" style="fill: rgb(188, 207, 0);"/>
  <polygon class="cls-4" points="246.492 229.094 241.062 229.094 215.962 263.594 215.962 229.094 211.642 229.094 211.642 276.984 226.712 256.314 242.202 274.734 242.392 274.954 248.112 274.954 229.312 252.614 246.492 229.094" style="fill: rgb(122, 124, 129);"/>
  <path class="cls-4" d="M 283.432 231.754 C 272.32 225.285 258.064 229.116 251.692 240.284 C 247.545 247.561 247.545 256.487 251.692 263.764 C 253.706 267.307 256.626 270.25 260.152 272.294 C 267.347 276.482 276.237 276.482 283.432 272.294 C 298.899 263.206 298.899 240.842 283.432 231.754 Z M 271.792 271.054 C 268.471 271.077 265.207 270.191 262.352 268.494 C 259.499 266.813 257.126 264.427 255.462 261.564 C 252.05 255.662 252.05 248.386 255.462 242.484 C 257.132 239.626 259.503 237.241 262.352 235.554 C 268.184 232.148 275.399 232.148 281.232 235.554 C 284.078 237.227 286.438 239.612 288.082 242.474 C 291.455 248.39 291.455 255.648 288.082 261.564 C 286.432 264.422 284.073 266.805 281.232 268.484 C 278.377 270.182 275.114 271.071 271.792 271.054 Z" style="fill: rgb(122, 124, 129);"/>
  <path class="cls-4" d="M 322.362 255.114 C 323.857 254.921 325.314 254.499 326.682 253.864 C 328.918 252.892 330.854 251.343 332.292 249.374 C 334.937 245.908 335.427 241.255 333.562 237.314 C 332.787 235.7 331.699 234.255 330.362 233.064 C 328.903 231.752 327.206 230.734 325.362 230.064 C 323.398 229.38 321.331 229.042 319.252 229.064 L 303.032 229.064 L 303.032 274.924 L 307.352 274.924 L 307.352 233.414 L 319.242 233.414 C 321.282 233.373 323.302 233.822 325.132 234.724 C 326.699 235.476 328.044 236.624 329.032 238.054 C 329.886 239.297 330.349 240.766 330.362 242.274 C 330.367 243.921 329.814 245.522 328.792 246.814 C 327.798 248.15 326.494 249.225 324.992 249.944 C 322.431 250.874 319.715 251.302 316.992 251.204 L 310.202 251.204 L 329.562 274.734 L 329.752 274.954 L 335.462 274.954 L 319.302 255.364 C 320.362 255.334 321.392 255.254 322.362 255.114 Z" style="fill: rgb(122, 124, 129);"/>
  <polygon class="cls-4" points="344.782 274.954 374.922 274.954 374.922 270.504 349.102 270.504 349.102 254.224 369.222 254.224 369.222 249.834 349.102 249.834 349.102 233.484 374.922 233.484 374.922 229.094 344.782 229.094 344.782 274.954" style="fill: rgb(122, 124, 129);"/>
  <path class="cls-4" d="M 404.262 227.674 L 382.262 274.954 L 387.052 274.954 L 392.332 263.624 L 415.332 263.624 L 420.332 274.954 L 425.032 274.954 L 404.262 227.674 Z M 404.092 238.274 L 413.402 259.274 L 394.402 259.274 L 404.092 238.274 Z" style="fill: rgb(122, 124, 129);"/>
  <rect class="cls-5" x="191.272" y="229.124" width="4.62" height="49.62" style="fill: rgb(0, 123, 196);"/>
  <rect class="cls-3" x="102.812" y="244.074" width="4.62" height="49.64" style="fill: rgb(188, 207, 0);"/>
  <rect class="cls-6" x="143.892" y="197.754" width="4.62" height="95.96" style="fill: url(#linear-gradient);"/>
  <path class="cls-7" d="M 104.022 227.764 C 101.667 225.19 98.808 223.127 95.622 221.704 C 88.381 218.45 80.011 218.912 73.172 222.944 C 69.434 225.159 66.333 228.304 64.172 232.074 C 59.745 239.844 59.745 249.374 64.172 257.144 C 66.323 260.929 69.426 264.086 73.172 266.304 C 76.935 268.549 81.24 269.725 85.622 269.704 C 89.335 269.712 93.001 268.874 96.342 267.254 C 97.623 266.616 98.848 265.87 100.002 265.024 L 100.002 258.864 C 98.34 260.568 96.399 261.976 94.262 263.024 C 88.286 265.922 81.257 265.64 75.532 262.274 C 72.474 260.472 69.935 257.909 68.162 254.834 C 64.508 248.493 64.508 240.685 68.162 234.344 C 69.937 231.271 72.476 228.708 75.532 226.904 C 81.081 223.613 87.887 223.24 93.762 225.904 C 96.325 227.086 98.613 228.789 100.482 230.904 L 100.922 231.394 L 104.482 228.244 L 104.022 227.764 Z" style="fill: rgb(78, 173, 51);"/>
  <polygon class="cls-2" points="189.022 257.434 164.782 228.454 158.392 228.454 189.022 265.144 189.022 257.434" style="fill: rgb(0, 174, 234);"/>
</svg>