<?xml version="1.0" encoding="utf-8"?>
<svg viewBox="62.674 194.229 397.612 117.749" xmlns="http://www.w3.org/2000/svg">
  <defs>
    <linearGradient id="linear-gradient" x1="323.41" y1="336.22" x2="323.41" y2="240.68" gradientUnits="userSpaceOnUse" gradientTransform="matrix(1, 0, 0, 1, -165.57326, -34.75002)">
      <stop offset="0" stop-color="#bccf00"/>
      <stop offset="1" stop-color="#00aeea"/>
    </linearGradient>
  </defs>
  <path class="cls-1" d="M 172.247 300.49 C 171.522 300.493 170.81 300.3 170.187 299.93 C 169.564 299.561 169.047 299.037 168.687 298.41 C 167.967 297.124 167.967 295.556 168.687 294.27 C 169.048 293.646 169.565 293.125 170.187 292.76 C 170.81 292.39 171.522 292.197 172.247 292.2 C 172.816 292.201 173.379 292.324 173.897 292.56 C 174.423 292.796 174.896 293.136 175.287 293.56 L 174.847 293.95 C 174.192 293.197 173.244 292.763 172.247 292.76 C 171.624 292.755 171.012 292.921 170.477 293.24 C 169.941 293.554 169.496 294.002 169.187 294.54 C 168.868 295.086 168.702 295.708 168.707 296.34 C 168.702 296.969 168.868 297.588 169.187 298.13 C 169.496 298.668 169.941 299.116 170.477 299.43 C 171.012 299.749 171.624 299.915 172.247 299.91 C 172.771 299.914 173.288 299.795 173.757 299.56 C 174.238 299.325 174.658 298.983 174.987 298.56 L 175.427 298.91 C 175.047 299.394 174.561 299.784 174.007 300.05 C 173.462 300.33 172.859 300.48 172.247 300.49 Z" style="fill: rgb(255, 255, 255); stroke: rgb(255, 255, 255); stroke-miterlimit: 10; stroke-width: 0.5px;"/>
  <path class="cls-1" d="M 178.947 298.34 L 177.947 300.4 L 177.327 300.4 L 181.137 292.2 L 184.737 300.4 L 184.127 300.4 L 183.217 298.34 L 178.947 298.34 Z M 181.147 293.58 L 179.207 297.78 L 183.007 297.78 L 181.147 293.58 Z" style="fill: rgb(255, 255, 255); stroke: rgb(255, 255, 255); stroke-miterlimit: 10; stroke-width: 0.5px;"/>
  <path class="cls-1" d="M 192.067 300.4 L 188.707 296.31 L 189.707 296.31 C 190.217 296.325 190.725 296.248 191.207 296.08 C 191.493 295.935 191.743 295.726 191.937 295.47 C 192.332 294.971 192.352 294.271 191.987 293.75 C 191.797 293.475 191.538 293.254 191.237 293.11 C 190.89 292.935 190.505 292.849 190.117 292.86 L 187.857 292.86 L 187.857 300.4 L 187.287 300.4 L 187.287 292.3 L 190.117 292.3 C 190.481 292.296 190.844 292.357 191.187 292.48 C 191.513 292.591 191.812 292.768 192.067 293 C 192.298 293.204 192.485 293.452 192.617 293.73 C 192.742 293.996 192.807 294.286 192.807 294.58 C 192.815 295.025 192.67 295.459 192.397 295.81 C 192.142 296.157 191.796 296.427 191.397 296.59 C 191.159 296.699 190.906 296.77 190.647 296.8 C 190.388 296.832 190.128 296.849 189.867 296.85 L 192.797 300.4 L 192.067 300.4 Z" style="fill: rgb(255, 255, 255); stroke: rgb(255, 255, 255); stroke-miterlimit: 10; stroke-width: 0.5px;"/>
  <path class="cls-1" d="M 200.997 296.92 C 201.263 297.263 201.404 297.686 201.397 298.12 C 201.397 298.414 201.332 298.704 201.207 298.97 C 201.077 299.255 200.886 299.508 200.647 299.71 C 200.393 299.935 200.097 300.108 199.777 300.22 C 199.433 300.34 199.071 300.401 198.707 300.4 L 195.707 300.4 L 195.707 292.3 L 198.017 292.3 C 198.681 292.264 199.333 292.494 199.827 292.94 C 200.032 293.123 200.196 293.348 200.307 293.6 C 200.554 294.138 200.532 294.761 200.247 295.28 C 200.106 295.53 199.911 295.745 199.677 295.91 L 199.567 295.99 L 199.977 296.14 C 200.382 296.301 200.735 296.571 200.997 296.92 Z M 196.307 295.83 L 198.037 295.83 C 198.223 295.842 198.41 295.842 198.597 295.83 C 198.75 295.801 198.901 295.757 199.047 295.7 C 199.283 295.591 199.491 295.43 199.657 295.23 C 199.858 295.005 199.965 294.712 199.957 294.41 C 199.953 294.151 199.877 293.898 199.737 293.68 C 199.574 293.439 199.349 293.246 199.087 293.12 C 198.773 292.977 198.431 292.905 198.087 292.91 L 196.337 292.91 L 196.307 295.83 Z M 199.827 299.59 C 200.128 299.446 200.387 299.225 200.577 298.95 C 200.743 298.705 200.834 298.416 200.837 298.12 C 200.84 297.801 200.734 297.491 200.537 297.24 C 200.343 296.992 200.092 296.793 199.807 296.66 C 199.326 296.473 198.812 296.385 198.297 296.4 L 196.297 296.4 L 196.297 299.84 L 198.697 299.84 C 199.088 299.851 199.477 299.765 199.827 299.59 L 199.827 299.59 Z" style="fill: rgb(255, 255, 255); stroke: rgb(255, 255, 255); stroke-miterlimit: 10; stroke-width: 0.5px;"/>
  <path class="cls-1" d="M 207.657 300.49 C 204.47 300.55 202.414 297.138 203.955 294.349 C 205.077 292.317 207.65 291.605 209.657 292.77 C 212.391 294.373 212.391 298.327 209.657 299.93 C 209.051 300.289 208.361 300.483 207.657 300.49 Z M 207.657 292.79 C 207.034 292.785 206.422 292.951 205.887 293.27 C 205.354 293.583 204.91 294.027 204.597 294.56 C 203.957 295.668 203.957 297.032 204.597 298.14 C 204.91 298.673 205.354 299.117 205.887 299.43 C 206.98 300.071 208.334 300.071 209.427 299.43 C 209.957 299.117 210.397 298.672 210.707 298.14 C 211.334 297.029 211.334 295.671 210.707 294.56 C 210.4 294.02 209.959 293.569 209.427 293.25 C 208.89 292.938 208.278 292.779 207.657 292.79 Z" style="fill: rgb(255, 255, 255); stroke: rgb(255, 255, 255); stroke-miterlimit: 10; stroke-width: 0.5px;"/>
  <path class="cls-1" d="M 214.877 293.82 L 214.877 300.4 L 214.317 300.4 L 214.317 292.25 L 219.927 298.95 L 219.927 292.35 L 220.487 292.35 L 220.487 300.59 L 214.877 293.82 Z" style="fill: rgb(255, 255, 255); stroke: rgb(255, 255, 255); stroke-miterlimit: 10; stroke-width: 0.5px;"/>
  <path class="cls-1" d="M 228.957 293.82 L 228.957 300.4 L 228.427 300.4 L 228.427 292.25 L 234.037 298.95 L 234.037 292.35 L 234.597 292.35 L 234.597 300.59 L 228.957 293.82 Z" style="fill: rgb(255, 255, 255); stroke: rgb(255, 255, 255); stroke-miterlimit: 10; stroke-width: 0.5px;"/>
  <path class="cls-1" d="M 237.707 300.4 L 237.707 292.3 L 242.957 292.3 L 242.957 292.87 L 238.267 292.87 L 238.267 296.06 L 241.917 296.06 L 241.917 296.64 L 238.267 296.64 L 238.267 299.81 L 242.957 299.81 L 242.957 300.4 L 237.707 300.4 Z" style="fill: rgb(255, 255, 255); stroke: rgb(255, 255, 255); stroke-miterlimit: 10; stroke-width: 0.5px;"/>
  <path class="cls-1" d="M 249.037 300.49 C 248.63 300.492 248.228 300.407 247.857 300.24 C 247.48 300.081 247.14 299.846 246.857 299.55 C 246.564 299.269 246.335 298.928 246.187 298.55 C 246.036 298.164 245.958 297.754 245.957 297.34 L 245.957 292.29 L 246.517 292.29 L 246.517 297.34 C 246.517 297.682 246.581 298.022 246.707 298.34 C 246.832 298.651 247.019 298.934 247.257 299.17 C 247.491 299.406 247.77 299.593 248.077 299.72 C 248.695 299.973 249.388 299.973 250.007 299.72 C 250.314 299.593 250.592 299.406 250.827 299.17 C 251.062 298.933 251.246 298.651 251.367 298.34 C 251.5 298.024 251.568 297.683 251.567 297.34 L 251.567 292.29 L 252.127 292.29 L 252.127 297.34 C 252.126 297.754 252.048 298.164 251.897 298.55 C 251.745 298.926 251.517 299.266 251.227 299.55 C 250.944 299.846 250.604 300.081 250.227 300.24 C 249.853 300.409 249.447 300.494 249.037 300.49 Z" style="fill: rgb(255, 255, 255); stroke: rgb(255, 255, 255); stroke-miterlimit: 10; stroke-width: 0.5px;"/>
  <path class="cls-1" d="M 261.677 292.3 L 261.677 292.87 L 258.477 292.87 L 258.477 300.4 L 257.907 300.4 L 257.907 292.87 L 254.687 292.87 L 254.687 292.3 L 261.677 292.3 Z" style="fill: rgb(255, 255, 255); stroke: rgb(255, 255, 255); stroke-miterlimit: 10; stroke-width: 0.5px;"/>
  <path class="cls-1" d="M 269.017 300.4 L 265.657 296.31 L 266.657 296.31 C 267.163 296.325 267.668 296.247 268.147 296.08 C 268.436 295.935 268.689 295.727 268.887 295.47 C 269.084 295.215 269.193 294.903 269.197 294.58 C 269.194 294.284 269.103 293.995 268.937 293.75 C 268.742 293.479 268.485 293.259 268.187 293.11 C 267.839 292.937 267.455 292.852 267.067 292.86 L 264.797 292.86 L 264.797 300.4 L 264.237 300.4 L 264.237 292.3 L 267.067 292.3 C 267.431 292.297 267.793 292.358 268.137 292.48 C 268.459 292.593 268.754 292.77 269.007 293 C 269.241 293.203 269.431 293.451 269.567 293.73 C 269.688 293.997 269.752 294.287 269.757 294.58 C 269.76 295.024 269.616 295.457 269.347 295.81 C 268.933 296.368 268.307 296.73 267.617 296.81 C 267.358 296.843 267.098 296.86 266.837 296.86 L 269.767 300.41 L 269.017 300.4 Z" style="fill: rgb(255, 255, 255); stroke: rgb(255, 255, 255); stroke-miterlimit: 10; stroke-width: 0.5px;"/>
  <path class="cls-1" d="M 273.627 298.34 L 272.677 300.4 L 272.047 300.4 L 275.857 292.2 L 279.467 300.4 L 278.847 300.4 L 277.947 298.34 L 273.627 298.34 Z M 275.837 293.58 L 273.897 297.78 L 277.697 297.78 L 275.837 293.58 Z" style="fill: rgb(255, 255, 255); stroke: rgb(255, 255, 255); stroke-miterlimit: 10; stroke-width: 0.5px;"/>
  <path class="cls-1" d="M 281.967 300.4 L 281.967 292.3 L 282.527 292.3 L 282.527 299.84 L 287.077 299.84 L 287.077 300.4 L 281.967 300.4 Z" style="fill: rgb(255, 255, 255); stroke: rgb(255, 255, 255); stroke-miterlimit: 10; stroke-width: 0.5px;"/>
  <path class="cls-1" d="M 299.627 300.4 L 296.257 296.31 L 297.257 296.31 C 297.763 296.325 298.268 296.247 298.747 296.08 C 299.038 295.938 299.291 295.729 299.487 295.47 C 299.688 295.217 299.798 294.903 299.797 294.58 C 299.794 294.284 299.703 293.995 299.537 293.75 C 299.342 293.479 299.085 293.259 298.787 293.11 C 298.44 292.936 298.055 292.85 297.667 292.86 L 295.427 292.86 L 295.427 300.4 L 294.867 300.4 L 294.867 292.3 L 297.697 292.3 C 298.061 292.297 298.423 292.358 298.767 292.48 C 299.089 292.593 299.384 292.77 299.637 293 C 299.871 293.203 300.061 293.451 300.197 293.73 C 300.521 294.409 300.436 295.213 299.977 295.81 C 299.719 296.155 299.374 296.424 298.977 296.59 C 298.736 296.7 298.48 296.771 298.217 296.8 C 297.961 296.833 297.704 296.849 297.447 296.85 L 300.367 300.4 L 299.627 300.4 Z" style="fill: rgb(255, 255, 255); stroke: rgb(255, 255, 255); stroke-miterlimit: 10; stroke-width: 0.5px;"/>
  <path class="cls-1" d="M 303.287 300.4 L 303.287 292.3 L 308.537 292.3 L 308.537 292.87 L 303.847 292.87 L 303.847 296.06 L 307.497 296.06 L 307.497 296.64 L 303.847 296.64 L 303.847 299.81 L 308.537 299.81 L 308.537 300.4 L 303.287 300.4 Z" style="fill: rgb(255, 255, 255); stroke: rgb(255, 255, 255); stroke-miterlimit: 10; stroke-width: 0.5px;"/>
  <path class="cls-1" d="M 316.427 297.25 C 316.633 297.543 316.745 297.892 316.747 298.25 C 316.745 298.558 316.666 298.861 316.517 299.13 C 316.36 299.418 316.142 299.667 315.877 299.86 C 315.29 300.269 314.592 300.485 313.877 300.48 C 313.507 300.483 313.14 300.429 312.787 300.32 C 312.451 300.218 312.134 300.062 311.847 299.86 C 311.405 299.556 311.097 299.094 310.987 298.57 L 311.527 298.27 C 311.552 298.731 311.802 299.15 312.197 299.39 C 312.423 299.565 312.681 299.695 312.957 299.77 C 313.255 299.863 313.565 299.91 313.877 299.91 C 314.482 299.931 315.078 299.748 315.567 299.39 C 315.964 299.145 316.212 298.717 316.227 298.25 C 316.228 297.989 316.139 297.735 315.977 297.53 C 315.802 297.287 315.572 297.088 315.307 296.95 C 314.837 296.764 314.341 296.653 313.837 296.62 L 313.207 296.52 C 312.884 296.475 312.571 296.38 312.277 296.24 C 311.879 296.07 311.534 295.797 311.277 295.45 C 311.052 295.142 310.929 294.771 310.927 294.39 C 310.927 294.085 311.006 293.785 311.157 293.52 C 311.32 293.237 311.542 292.991 311.807 292.8 C 312.094 292.597 312.411 292.442 312.747 292.34 C 313.1 292.231 313.467 292.177 313.837 292.18 C 314.552 292.174 315.25 292.391 315.837 292.8 C 316.273 293.096 316.575 293.552 316.677 294.07 L 316.147 294.37 C 316.135 294.162 316.073 293.959 315.967 293.78 C 315.84 293.576 315.677 293.396 315.487 293.25 C 315.248 293.084 314.985 292.956 314.707 292.87 C 314.412 292.78 314.105 292.736 313.797 292.74 C 313.489 292.738 313.182 292.781 312.887 292.87 C 312.61 292.952 312.35 293.08 312.117 293.25 C 311.92 293.396 311.751 293.575 311.617 293.78 C 311.509 293.965 311.45 294.175 311.447 294.39 C 311.457 294.668 311.559 294.935 311.737 295.15 C 311.92 295.403 312.164 295.606 312.447 295.74 C 312.629 295.833 312.825 295.897 313.027 295.93 L 313.837 296.04 L 314.277 296.11 C 314.503 296.137 314.727 296.18 314.947 296.24 C 315.137 296.289 315.322 296.36 315.497 296.45 C 315.867 296.638 316.186 296.912 316.427 297.25 Z" style="fill: rgb(255, 255, 255); stroke: rgb(255, 255, 255); stroke-miterlimit: 10; stroke-width: 0.5px;"/>
  <path class="cls-1" d="M 319.607 300.4 L 319.607 292.3 L 324.857 292.3 L 324.857 292.87 L 320.167 292.87 L 320.167 296.06 L 323.817 296.06 L 323.817 296.64 L 320.167 296.64 L 320.167 299.81 L 324.857 299.81 L 324.857 300.4 L 319.607 300.4 Z" style="fill: rgb(255, 255, 255); stroke: rgb(255, 255, 255); stroke-miterlimit: 10; stroke-width: 0.5px;"/>
  <path class="cls-1" d="M 328.927 298.34 L 327.927 300.4 L 327.307 300.4 L 331.117 292.2 L 334.717 300.4 L 334.107 300.4 L 333.197 298.34 L 328.927 298.34 Z M 331.137 293.58 L 329.187 297.78 L 332.987 297.78 L 331.137 293.58 Z" style="fill: rgb(255, 255, 255); stroke: rgb(255, 255, 255); stroke-miterlimit: 10; stroke-width: 0.5px;"/>
  <path class="cls-1" d="M 342.047 300.4 L 338.687 296.31 L 339.687 296.31 C 340.197 296.326 340.705 296.248 341.187 296.08 C 341.476 295.935 341.729 295.727 341.927 295.47 C 342.124 295.215 342.233 294.903 342.237 294.58 C 342.234 294.284 342.143 293.995 341.977 293.75 C 341.782 293.479 341.525 293.259 341.227 293.11 C 340.879 292.937 340.495 292.852 340.107 292.86 L 337.827 292.86 L 337.827 300.4 L 337.267 300.4 L 337.267 292.3 L 340.097 292.3 C 340.461 292.297 340.823 292.358 341.167 292.48 C 341.489 292.593 341.784 292.77 342.037 293 C 342.271 293.203 342.461 293.451 342.597 293.73 C 342.718 293.997 342.782 294.287 342.787 294.58 C 342.79 295.024 342.646 295.457 342.377 295.81 C 342.118 296.154 341.773 296.423 341.377 296.59 C 341.14 296.701 340.887 296.772 340.627 296.8 C 340.368 296.833 340.108 296.85 339.847 296.85 L 342.777 300.4 L 342.047 300.4 Z" style="fill: rgb(255, 255, 255); stroke: rgb(255, 255, 255); stroke-miterlimit: 10; stroke-width: 0.5px;"/>
  <path class="cls-1" d="M 349.177 300.49 C 348.452 300.493 347.74 300.3 347.117 299.93 C 346.495 299.563 345.981 299.039 345.627 298.41 C 344.026 295.664 345.998 292.214 349.177 292.2 C 349.746 292.201 350.309 292.324 350.827 292.56 C 351.355 292.793 351.828 293.134 352.217 293.56 L 351.777 293.95 C 351.454 293.577 351.055 293.277 350.607 293.07 C 350.157 292.868 349.67 292.763 349.177 292.76 C 348.56 292.762 347.955 292.931 347.427 293.25 C 346.891 293.564 346.446 294.012 346.137 294.55 C 345.818 295.096 345.652 295.718 345.657 296.35 C 345.652 296.979 345.818 297.598 346.137 298.14 C 346.446 298.678 346.891 299.126 347.427 299.44 C 347.962 299.759 348.574 299.925 349.197 299.92 C 349.721 299.926 350.239 299.806 350.707 299.57 C 351.188 299.335 351.608 298.993 351.937 298.57 L 352.387 298.92 C 351.614 299.895 350.44 300.465 349.197 300.47 L 349.177 300.49 Z" style="fill: rgb(255, 255, 255); stroke: rgb(255, 255, 255); stroke-miterlimit: 10; stroke-width: 0.5px;"/>
  <path class="cls-1" d="M 360.307 296.64 L 355.517 296.64 L 355.517 300.4 L 354.947 300.4 L 354.947 292.3 L 355.517 292.3 L 355.517 296.06 L 360.307 296.06 L 360.307 292.3 L 360.867 292.3 L 360.867 300.4 L 360.307 300.4 L 360.307 296.64 Z" style="fill: rgb(255, 255, 255); stroke: rgb(255, 255, 255); stroke-miterlimit: 10; stroke-width: 0.5px;"/>
  <path class="cls-1" d="M 368.927 300.4 L 368.927 292.3 L 369.487 292.3 L 369.487 300.4 L 368.927 300.4 Z" style="fill: rgb(255, 255, 255); stroke: rgb(255, 255, 255); stroke-miterlimit: 10; stroke-width: 0.5px;"/>
  <path class="cls-1" d="M 373.347 293.82 L 373.347 300.4 L 372.787 300.4 L 372.787 292.25 L 378.397 298.95 L 378.397 292.35 L 378.957 292.35 L 378.957 300.59 L 373.347 293.82 Z" style="fill: rgb(255, 255, 255); stroke: rgb(255, 255, 255); stroke-miterlimit: 10; stroke-width: 0.5px;"/>
  <path class="cls-1" d="M 387.237 297.25 C 387.44 297.544 387.549 297.893 387.547 298.25 C 387.549 298.557 387.473 298.86 387.327 299.13 C 387.17 299.42 386.947 299.67 386.677 299.86 C 386.091 300.269 385.392 300.486 384.677 300.48 C 384.307 300.484 383.94 300.43 383.587 300.32 C 383.25 300.22 382.932 300.064 382.647 299.86 C 382.205 299.556 381.897 299.094 381.787 298.57 L 382.327 298.27 C 382.352 298.731 382.602 299.15 382.997 299.39 C 383.223 299.565 383.481 299.695 383.757 299.77 C 384.055 299.863 384.365 299.91 384.677 299.91 C 385.28 299.933 385.872 299.749 386.357 299.39 C 386.754 299.145 387.002 298.717 387.017 298.25 C 387.017 297.99 386.933 297.738 386.777 297.53 C 386.597 297.288 386.364 297.09 386.097 296.95 C 385.628 296.762 385.131 296.65 384.627 296.62 L 383.997 296.52 C 383.675 296.473 383.361 296.379 383.067 296.24 C 382.67 296.068 382.326 295.796 382.067 295.45 C 381.837 295.144 381.715 294.772 381.717 294.39 C 381.712 294.084 381.792 293.783 381.947 293.52 C 382.11 293.237 382.332 292.991 382.597 292.8 C 382.882 292.596 383.2 292.44 383.537 292.34 C 383.89 292.23 384.257 292.176 384.627 292.18 C 385.342 292.174 386.041 292.391 386.627 292.8 C 387.067 293.094 387.373 293.551 387.477 294.07 L 386.937 294.37 C 386.934 294.16 386.872 293.955 386.757 293.78 C 386.636 293.571 386.473 293.391 386.277 293.25 C 386.043 293.082 385.782 292.954 385.507 292.87 C 385.212 292.78 384.905 292.736 384.597 292.74 C 384.289 292.738 383.982 292.781 383.687 292.87 C 383.41 292.952 383.15 293.08 382.917 293.25 C 382.718 293.393 382.548 293.573 382.417 293.78 C 382.304 293.963 382.245 294.175 382.247 294.39 C 382.254 294.667 382.352 294.934 382.527 295.15 C 382.712 295.401 382.956 295.604 383.237 295.74 C 383.42 295.83 383.615 295.894 383.817 295.93 L 384.637 296.04 L 385.077 296.11 C 385.303 296.138 385.527 296.181 385.747 296.24 C 385.937 296.291 386.121 296.361 386.297 296.45 C 386.67 296.636 386.993 296.911 387.237 297.25 Z" style="fill: rgb(255, 255, 255); stroke: rgb(255, 255, 255); stroke-miterlimit: 10; stroke-width: 0.5px;"/>
  <path class="cls-1" d="M 396.557 292.3 L 396.557 292.87 L 393.357 292.87 L 393.357 300.4 L 392.787 300.4 L 392.787 292.87 L 389.567 292.87 L 389.567 292.3 L 396.557 292.3 Z" style="fill: rgb(255, 255, 255); stroke: rgb(255, 255, 255); stroke-miterlimit: 10; stroke-width: 0.5px;"/>
  <path class="cls-1" d="M 399.267 300.4 L 399.267 292.3 L 399.827 292.3 L 399.827 300.4 L 399.267 300.4 Z" style="fill: rgb(255, 255, 255); stroke: rgb(255, 255, 255); stroke-miterlimit: 10; stroke-width: 0.5px;"/>
  <path class="cls-1" d="M 409.427 292.3 L 409.427 292.87 L 406.227 292.87 L 406.227 300.4 L 405.647 300.4 L 405.647 292.87 L 402.427 292.87 L 402.427 292.3 L 409.427 292.3 Z" style="fill: rgb(255, 255, 255); stroke: rgb(255, 255, 255); stroke-miterlimit: 10; stroke-width: 0.5px;"/>
  <path class="cls-1" d="M 415.097 300.49 C 414.693 300.491 414.294 300.406 413.927 300.24 C 413.55 300.081 413.21 299.846 412.927 299.55 C 412.63 299.272 412.401 298.93 412.257 298.55 C 412.101 298.166 412.023 297.755 412.027 297.34 L 412.027 292.29 L 412.587 292.29 L 412.587 297.34 C 412.582 297.683 412.646 298.023 412.777 298.34 C 412.902 298.649 413.085 298.931 413.317 299.17 C 413.555 299.406 413.837 299.593 414.147 299.72 C 414.447 299.848 414.77 299.913 415.097 299.91 C 415.44 299.916 415.78 299.852 416.097 299.72 C 416.402 299.59 416.681 299.403 416.917 299.17 C 417.148 298.931 417.332 298.649 417.457 298.34 C 417.587 298.023 417.652 297.683 417.647 297.34 L 417.647 292.29 L 418.217 292.29 L 418.217 297.34 C 418.216 297.754 418.138 298.164 417.987 298.55 C 417.835 298.926 417.607 299.266 417.317 299.55 C 417.034 299.846 416.694 300.081 416.317 300.24 C 415.934 300.413 415.517 300.498 415.097 300.49 Z" style="fill: rgb(255, 255, 255); stroke: rgb(255, 255, 255); stroke-miterlimit: 10; stroke-width: 0.5px;"/>
  <path class="cls-1" d="M 427.747 292.3 L 427.747 292.87 L 424.547 292.87 L 424.547 300.4 L 423.977 300.4 L 423.977 292.87 L 420.757 292.87 L 420.757 292.3 L 427.747 292.3 Z" style="fill: rgb(255, 255, 255); stroke: rgb(255, 255, 255); stroke-miterlimit: 10; stroke-width: 0.5px;"/>
  <path class="cls-1" d="M 430.307 300.4 L 430.307 292.3 L 435.547 292.3 L 435.547 292.87 L 430.867 292.87 L 430.867 296.06 L 434.517 296.06 L 434.517 296.64 L 430.867 296.64 L 430.867 299.81 L 435.547 299.81 L 435.547 300.4 L 430.307 300.4 Z" style="fill: rgb(255, 255, 255); stroke: rgb(255, 255, 255); stroke-miterlimit: 10; stroke-width: 0.5px;"/>
  <path class="cls-2" d="M 178.317 204.89 L 162.607 204.89 L 162.607 209.57 L 178.317 209.57 C 185.534 209.806 189.789 217.766 185.976 223.898 C 184.322 226.559 181.448 228.218 178.317 228.32 L 162.607 228.32 L 162.607 233.01 L 178.317 233.01 C 186.069 232.983 192.345 226.702 192.367 218.95 C 192.35 211.196 186.071 204.912 178.317 204.89 Z" style="fill: rgb(0, 174, 234);"/>
  <polygon class="cls-3" points="121.767 261.39 152.827 298.59 152.827 290.88 121.767 253.75 121.767 261.39" style="fill: rgb(188, 207, 0);"/>
  <polygon class="cls-4" points="258.127 236.23 252.697 236.23 227.597 270.73 227.597 236.23 223.277 236.23 223.277 284.12 238.347 263.45 253.837 281.87 254.027 282.09 259.747 282.09 240.947 259.75 258.127 236.23" style="fill: rgb(255, 255, 255);"/>
  <path class="cls-4" d="M 295.067 238.89 C 283.954 232.421 269.699 236.252 263.327 247.42 C 259.179 254.697 259.179 263.623 263.327 270.9 C 265.341 274.443 268.261 277.386 271.787 279.43 C 278.982 283.618 287.872 283.618 295.067 279.43 C 310.533 270.342 310.533 247.978 295.067 238.89 L 295.067 238.89 Z M 283.427 278.19 C 280.106 278.212 276.841 277.327 273.987 275.63 C 271.134 273.949 268.761 271.563 267.097 268.7 C 263.684 262.798 263.684 255.522 267.097 249.62 C 268.767 246.762 271.138 244.377 273.987 242.69 C 279.819 239.284 287.034 239.284 292.867 242.69 C 295.712 244.362 298.073 246.747 299.717 249.61 C 303.09 255.526 303.09 262.784 299.717 268.7 C 298.067 271.558 295.708 273.941 292.867 275.62 C 290.012 277.318 286.748 278.207 283.427 278.19 Z" style="fill: rgb(255, 255, 255);"/>
  <path class="cls-4" d="M 333.997 262.25 C 335.492 262.057 336.949 261.635 338.317 261 C 340.552 260.028 342.489 258.478 343.927 256.51 C 346.572 253.044 347.062 248.391 345.197 244.45 C 344.422 242.836 343.334 241.391 341.997 240.2 C 340.538 238.888 338.841 237.87 336.997 237.2 C 335.033 236.516 332.966 236.178 330.887 236.2 L 314.667 236.2 L 314.667 282.06 L 318.987 282.06 L 318.987 240.55 L 330.877 240.55 C 332.917 240.509 334.937 240.958 336.767 241.86 C 338.334 242.612 339.678 243.76 340.667 245.19 C 341.52 246.433 341.984 247.902 341.997 249.41 C 342.002 251.057 341.449 252.658 340.427 253.95 C 339.433 255.286 338.129 256.361 336.627 257.08 C 334.066 258.01 331.35 258.438 328.627 258.34 L 321.837 258.34 L 341.197 281.87 L 341.387 282.09 L 347.097 282.09 L 330.937 262.5 C 331.997 262.47 333.027 262.39 333.997 262.25 Z" style="fill: rgb(255, 255, 255);"/>
  <polygon class="cls-4" points="356.417 282.09 386.557 282.09 386.557 277.64 360.737 277.64 360.737 261.36 380.857 261.36 380.857 256.97 360.737 256.97 360.737 240.62 386.557 240.62 386.557 236.23 356.417 236.23 356.417 282.09" style="fill: rgb(255, 255, 255);"/>
  <path class="cls-4" d="M 415.897 234.81 L 393.897 282.09 L 398.687 282.09 L 403.967 270.76 L 426.967 270.76 L 431.967 282.09 L 436.667 282.09 L 415.897 234.81 Z M 415.727 245.41 L 425.037 266.41 L 406.037 266.41 L 415.727 245.41 Z" style="fill: rgb(255, 255, 255);"/>
  <rect class="cls-5" x="202.907" y="236.26" width="4.62" height="49.62" style="fill: rgb(0, 123, 196);"/>
  <rect class="cls-3" x="114.447" y="251.21" width="4.62" height="49.64" style="fill: rgb(188, 207, 0);"/>
  <path class="cls-6" d="M 115.657 234.9 C 113.302 232.326 110.442 230.263 107.257 228.84 C 100.016 225.586 91.645 226.048 84.807 230.08 C 81.068 232.295 77.968 235.44 75.807 239.21 C 71.379 246.98 71.379 256.51 75.807 264.28 C 77.958 268.065 81.06 271.222 84.807 273.44 C 88.57 275.685 92.875 276.861 97.257 276.84 C 100.97 276.848 104.636 276.01 107.977 274.39 C 109.258 273.752 110.482 273.006 111.637 272.16 L 111.637 266 C 109.975 267.704 108.034 269.111 105.897 270.16 C 99.921 273.057 92.892 272.776 87.167 269.41 C 84.109 267.608 81.569 265.045 79.797 261.97 C 76.143 255.629 76.143 247.821 79.797 241.48 C 81.572 238.407 84.11 235.844 87.167 234.04 C 92.715 230.749 99.521 230.376 105.397 233.04 C 107.96 234.222 110.248 235.925 112.117 238.04 L 112.557 238.53 L 116.117 235.38 L 115.657 234.9 Z" style="fill: rgb(78, 173, 51);"/>
  <polygon class="cls-2" points="200.657 264.57 176.417 235.59 170.027 235.59 200.657 272.28 200.657 264.57" style="fill: rgb(0, 174, 234);"/>
  <rect class="cls-7" x="155.527" y="204.89" width="4.62" height="95.96" style="fill: url(#linear-gradient);"/>
</svg>